<?xml version="1.0"?>
<svg xmlns="http://www.w3.org/2000/svg" id="line" viewBox="0 0 64 64" width="512" height="512"><path d="M47.694,61h7.787a1,1,0,0,0,1-1V53.938l3.123-3.9a10.834,10.834,0,0,0-8.46-17.6H49.365a8.65,8.65,0,0,0-8.459,6.934h0a8.665,8.665,0,0,0-.167,1.691v2.2L38.2,47.965a1.7,1.7,0,0,0,1.492,2.5h1.043v4.369a2.046,2.046,0,0,0,2.043,2.044h3.912V60A1,1,0,0,0,47.694,61Zm-4.955-6.167V49.464a1,1,0,0,0-1-1H40.207l2.412-4.481a1,1,0,0,0,.12-.474V41.057a6.623,6.623,0,0,1,6.626-6.626h1.779a8.835,8.835,0,0,1,6.9,14.354L54.7,52.962a1,1,0,0,0-.22.625V59H48.694V55.877a1,1,0,0,0-1-1Z"/><path d="M8.519,61h7.787a1,1,0,0,0,1-1V56.877h3.912a2.046,2.046,0,0,0,2.043-2.044V50.464H24.3a1.7,1.7,0,0,0,1.492-2.5l-2.535-4.708v-2.2a8.665,8.665,0,0,0-.167-1.691h0a8.65,8.65,0,0,0-8.459-6.934H12.856a10.834,10.834,0,0,0-8.46,17.6l3.123,3.9V60A1,1,0,0,0,8.519,61ZM5.957,48.785a8.835,8.835,0,0,1,6.9-14.354h1.779a6.623,6.623,0,0,1,6.626,6.626v2.452a1,1,0,0,0,.12.474l2.412,4.481H22.261a1,1,0,0,0-1,1l-.043,5.413H16.306a1,1,0,0,0-1,1V59H9.519V53.587a1,1,0,0,0-.22-.625Z"/><path d="M40.707,13.293A1,1,0,0,0,39,14v5H37V17a1,1,0,0,0-1-1H25V11a1,1,0,0,0-1.707-.707l-10,10a1,1,0,0,0,0,1.414l10,10A1,1,0,0,0,25,31V26h2v2a1,1,0,0,0,1,1H39v5a1,1,0,0,0,1.707.707l10-10a1,1,0,0,0,0-1.414ZM27,20v4H24a1,1,0,0,0-1,1v3.586L15.414,21,23,13.414V17a1,1,0,0,0,1,1H35v1H28A1,1,0,0,0,27,20Zm8,1v3H29V21Zm6,10.586V28a1,1,0,0,0-1-1H29V26h7a1,1,0,0,0,1-1V21h3a1,1,0,0,0,1-1V16.414L48.586,24Z"/><path d="M56,4a6.006,6.006,0,0,0-6,6,5.733,5.733,0,0,0,.145,1.247.983.983,0,0,0,.066.309L52,16.187V20a1,1,0,0,0,1,1h6a1,1,0,0,0,1-1V16.187l1.79-4.631a.987.987,0,0,0,.063-.3A5.749,5.749,0,0,0,62,10,6.006,6.006,0,0,0,56,4Zm2,15H54V17h4Zm1.869-8.044c0,.016-.007.032-.01.047l-1.544,4H57V12.414l1.707-1.707L57.293,9.293,56,10.586,54.707,9.293l-1.414,1.414L55,12.414V15H53.685l-1.544-4-.01-.045A3.957,3.957,0,0,1,52,10a4,4,0,0,1,8,0A3.957,3.957,0,0,1,59.869,10.956Z"/><path d="M2.211,11.556,4,16.187V20a1,1,0,0,0,1,1h6a1,1,0,0,0,1-1V16.187l1.79-4.631a.987.987,0,0,0,.063-.3A5.749,5.749,0,0,0,14,10,6,6,0,0,0,2,10a5.733,5.733,0,0,0,.145,1.247A.983.983,0,0,0,2.211,11.556ZM10,19H6V17h4ZM8,6a4,4,0,0,1,4,4,3.957,3.957,0,0,1-.131.956c0,.016-.007.032-.01.047l-1.544,4H9V12.414l1.707-1.707L9.293,9.293,8,10.586,6.707,9.293,5.293,10.707,7,12.414V15H5.685L4.141,11l-.01-.045A3.957,3.957,0,0,1,4,10,4,4,0,0,1,8,6Z"/></svg>
