<svg height="470pt" viewBox="0 -1 470.53782 470" width="470pt" xmlns="http://www.w3.org/2000/svg"><path d="m156.121094 283.003906c3.433594 14.429688 16.320312 24.621094 31.152344 24.640625 0 13.253907 10.746093 24 24 24h8c4.417968 0 8-3.582031 8-8v-196c0-4.417969-3.582032-8-8-8-18.949219-.085937-35.304688 13.265625-39.015626 31.847657-8.902343 4.734374-15.054687 13.386718-16.601562 23.351562-14.785156 6.25-24.390625 20.746094-24.382812 36.800781v.167969c-12.726563 9.511719-18.59375 25.667969-14.933594 41.125 3.65625 15.460938 16.144531 27.273438 31.78125 30.074219zm34.007812-118.398437c3.007813-1.03125 5.121094-3.742188 5.382813-6.914063.695312-9.40625 6.875-17.519531 15.761719-20.6875v80.519532c-4.160157-2.402344-7.019532-6.546876-7.792969-11.289063-.113281-.859375-.15625-1.722656-.136719-2.589844 0-4.417969-3.582031-8-8-8h-.300781c-7.773438-.09375-14.34375-5.777343-15.558594-13.453125-1.214844-7.675781 3.28125-15.109375 10.644531-17.59375zm-38.511718 58.238281c2.839843-1.601562 4.421874-4.765625 4-8l-.128907-.925781c-.125-.753907-.195312-1.511719-.214843-2.273438 0-7.941406 3.929687-15.371093 10.496093-19.839843 3.921875 9.574218 12.230469 16.667968 22.304688 19.039062 2.667969 11.628906 11.628906 20.777344 23.199219 23.6875v81.113281c-4.417969 0-8-3.582031-8-8v-9.472656c0-2.597656-1.265626-5.03125-3.386719-6.53125-2.121094-1.496094-4.835938-1.871094-7.285157-1.003906-4.136718 1.5625-8.742187 1.300781-12.675781-.722657-3.933593-2.019531-6.828125-5.613281-7.964843-9.886718 9.523437-5.761719 15.332031-16.085938 15.3125-27.214844v-1.167969c0-4.417969-3.582032-8-8-8-4.417969 0-8 3.582031-8 8v1.167969c.027343 6.054688-3.386719 11.601562-8.800782 14.3125l-.734375.359375c-10.601562-.621094-19.511719-8.179687-21.851562-18.539063-2.335938-10.359374 2.464843-21.011718 11.769531-26.125zm0 0"/><path d="m251.273438 331.644531h8c13.253906 0 24-10.746093 24-24 14.832031-.019531 27.71875-10.210937 31.152343-24.640625 15.632813-2.800781 28.113281-14.613281 31.773438-30.070312 3.65625-15.457032-2.207031-31.609375-14.925781-41.121094v-.167969c.007812-16.054687-9.597657-30.550781-24.382813-36.800781-1.539063-9.972656-7.691406-18.636719-16.601563-23.375-3.722656-18.574219-20.074218-31.910156-39.015624-31.824219-4.417969 0-8 3.582031-8 8v196c0 4.417969 3.582031 8 8 8zm64-120c-.023438.757813-.101563 1.511719-.230469 2.253907l-.128907.929687c-.421874 3.234375 1.160157 6.398437 4 8 9.292969 5.113281 14.089844 15.753906 11.761719 26.101563-2.324219 10.347656-11.214843 17.914062-21.800781 18.554687l-.738281-.359375c-5.441407-2.691406-8.878907-8.242188-8.863281-14.3125v-1.167969c0-4.417969-3.582032-8-8-8-4.417969 0-8 3.582031-8 8v1.167969c-.015626 11.121094 5.792968 21.441406 15.3125 27.199219-1.136719 4.273437-4.03125 7.867187-7.964844 9.886719-3.933594 2.023437-8.539063 2.285156-12.675782.722656-2.449218-.871094-5.171874-.492188-7.292968 1.007812-2.121094 1.503906-3.382813 3.941406-3.378906 6.542969v9.472656c0 4.417969-3.582032 8-8 8v-81.113281c11.570312-2.90625 20.535156-12.058594 23.199218-23.6875 10.074219-2.367188 18.386719-9.453125 22.320313-19.023438 6.554687 4.46875 10.476562 11.890626 10.480469 19.824219zm-56-74.640625c8.882812 3.167969 15.0625 11.273438 15.757812 20.679688.261719 3.167968 2.375 5.882812 5.386719 6.914062 7.363281 2.484375 11.859375 9.917969 10.644531 17.59375-1.214844 7.675782-7.785156 13.359375-15.558594 13.453125-2.183594-.117187-4.316406.675781-5.890625 2.191407-1.574219 1.519531-2.449219 3.621093-2.414062 5.808593.023437.875-.023438 1.75-.132813 2.617188-.777344 4.734375-3.636718 8.871093-7.792968 11.269531zm0 0"/><path d="m92.074219 212.652344c-5.007813 48.101562 14.464843 95.5 51.839843 126.191406 17.183594 13.863281 27.230469 34.71875 27.359376 56.800781v64c0 4.417969 3.582031 8 8 8h112c4.417968 0 8-3.582031 8-8v-64c.042968-21.996093 10.007812-42.796875 27.121093-56.617187 50.441407-41.195313 66.953125-111.117188 40.269531-170.527344-26.683593-59.410156-89.917968-93.515625-154.21875-83.175781-64.300781 10.339843-113.65625 62.546875-120.371093 127.328125zm191.199219 206.992187h-96v-16h96zm-96 32v-16h96v16zm33.34375-351.199219c56.441406-6.546874 110.4375 24.921876 132.566406 77.253907 22.132812 52.332031 7.09375 112.992187-36.917969 148.929687-18.652344 15.113282-30.417969 37.109375-32.632813 61.015625h-96.726562c-2.285156-23.972656-14.105469-46.019531-32.800781-61.191406-39.738281-32.570313-56.128907-85.753906-41.625-135.042969 14.503906-49.285156 57.09375-85.113281 108.136719-90.964844zm0 0"/><path d="m227.273438 3.644531h16v16h-16zm0 0"/><path d="m227.273438 51.644531h16v16h-16zm0 0"/><path d="m56.359375 84.050781 11.3125-11.320312 11.316406 11.3125-11.308593 11.316406zm0 0"/><path d="m90.300781 117.992188 11.316407-11.316407 11.3125 11.316407-11.3125 11.3125zm0 0"/><path d="m22.425781 50.101562 11.3125-11.3125 11.316407 11.3125-11.316407 11.316407zm0 0"/><path d="m63.550781 412.042969 11.316407-11.308594 11.308593 11.316406-11.316406 11.3125zm0 0"/><path d="m97.496094 378.109375 11.3125-11.3125 11.316406 11.3125-11.316406 11.3125zm0 0"/><path d="m29.617188 445.988281 11.3125-11.316406 11.3125 11.316406-11.3125 11.3125zm0 0"/><path d="m11.273438 243.644531h16v16h-16zm0 0"/><path d="m59.273438 243.644531h16v16h-16zm0 0"/><path d="m0 154.945312 6.546875-14.597656 71.378906 32-6.546875 14.597656zm0 0"/><path d="m8.613281 340.34375 71.378907-31.996094 6.546874 14.597656-71.378906 32zm0 0"/><path d="m124.019531 7.019531 14.511719-6.738281 33.429688 72.003906-14.511719 6.738282zm0 0"/><path d="m357.617188 117.988281 11.3125-11.3125 11.3125 11.3125-11.3125 11.3125zm0 0"/><path d="m391.550781 84.046875 11.320313-11.308594 11.308594 11.316407-11.316407 11.308593zm0 0"/><path d="m425.496094 50.113281 11.3125-11.316406 11.316406 11.316406-11.316406 11.3125zm0 0"/><path d="m418.300781 445.992188 11.3125-11.316407 11.316407 11.316407-11.316407 11.3125zm0 0"/><path d="m384.359375 412.046875 11.308594-11.316406 11.316406 11.308593-11.308594 11.316407zm0 0"/><path d="m350.421875 378.101562 11.316406-11.3125 11.3125 11.3125-11.3125 11.316407zm0 0"/><path d="m395.273438 243.644531h16v16h-16zm0 0"/><path d="m443.273438 243.644531h16v16h-16zm0 0"/><path d="m392.613281 172.347656 71.378907-32 6.546874 14.601563-71.382812 32zm0 0"/><path d="m383.996094 322.949219 6.546875-14.601563 71.378906 32-6.542969 14.597656zm0 0"/><path d="m298.59375 72.28125 33.410156-72.011719 14.511719 6.734375-33.40625 72.011719zm0 0"/></svg>