<?xml version="1.0" standalone="no"?>
<!DOCTYPE svg PUBLIC "-//W3C//DTD SVG 20010904//EN"
 "http://www.w3.org/TR/2001/REC-SVG-20010904/DTD/svg10.dtd">
<svg version="1.0" xmlns="http://www.w3.org/2000/svg"
 width="38.000000pt" height="32.000000pt" viewBox="0 0 38.000000 32.000000"
 preserveAspectRatio="xMidYMid meet">

<g transform="translate(0.000000,32.000000) scale(0.100000,-0.100000)"
fill="#000000" stroke="none">
<path d="M36 298 c-3 -13 -6 -34 -6 -48 0 -14 -7 -34 -15 -44 -39 -52 -6 -158
59 -187 56 -25 176 -25 232 0 64 29 98 132 60 186 -7 11 -16 39 -19 63 -3 24
-8 46 -11 50 -4 3 -27 -4 -51 -16 -58 -28 -132 -29 -185 -2 -50 25 -56 25 -64
-2z m273 -152 c39 -35 23 -96 -30 -115 -41 -14 -137 -14 -178 0 -54 19 -70 83
-28 116 35 27 206 26 236 -1z"/>
<path d="M104 116 c-10 -26 0 -51 21 -51 16 0 20 7 20 30 0 33 -30 49 -41 21z"/>
<path d="M234 116 c-10 -26 0 -51 21 -51 16 0 20 7 20 30 0 33 -30 49 -41 21z"/>
</g>
</svg>
