<?xml version="1.0"?>
<svg xmlns="http://www.w3.org/2000/svg" id="outline" viewBox="0 0 512 512" width="512" height="512">
	<path d="M456,24H432a8.00008,8.00008,0,0,0-8,8V64H88V32a8.00008,8.00008,0,0,0-8-8H56A40.04552,40.04552,0,0,0,16,64V336a40.04552,40.04552,0,0,0,40,40H72V360H56a24,24,0,0,1,0-48H80a8.00008,8.00008,0,0,0,8-8V80H424V304a8.00008,8.00008,0,0,0,8,8h24a24,24,0,0,1,0,48H424v16h32a40.04552,40.04552,0,0,0,40-40V64A40.04552,40.04552,0,0,0,456,24ZM72,296H56a39.79461,39.79461,0,0,0-24,8.019V64A24.02718,24.02718,0,0,1,56,40H72Zm384,0H440V40h16a24.02718,24.02718,0,0,1,24,24V304.019A39.79461,39.79461,0,0,0,456,296Z"/>
	<path d="M176,240a86.9927,86.9927,0,0,0,14.65625,48.40674L208,314.42188V376a7.95449,7.95449,0,0,0,.85059,3.57471l-.00586.00293,16,32A7.99869,7.99869,0,0,0,232,416h48a7.99869,7.99869,0,0,0,7.15527-4.42236l16-32-.00586-.00293A7.95449,7.95449,0,0,0,304,376V314.42188l17.34375-26.01514A86.9927,86.9927,0,0,0,336,240a80,80,0,0,0-160,0Zm59.95117,10.96338,15.249,11.43652a7.998,7.998,0,0,0,9.5996,0l15.249-11.43652L265.44141,304H246.55859ZM288,320v48H224V320Zm-12.94434,80H236.94434l-8-16h54.11132ZM256,176a64.07239,64.07239,0,0,1,64,64,71.042,71.042,0,0,1-11.96875,39.53174L291.71875,304h-9.96021l14.08619-70.43115a7.99982,7.99982,0,0,0-12.64453-7.96875L256,246l-27.2002-20.3999a7.99982,7.99982,0,0,0-12.64453,7.96875L230.24146,304h-9.96021l-16.3125-24.46826A71.042,71.042,0,0,1,192,240,64.07239,64.07239,0,0,1,256,176Z"/>
	<path d="M16,463.0293A24.9991,24.9991,0,0,0,40.9707,488H160a32.03635,32.03635,0,0,0,32-32V350.62744a30.62726,30.62726,0,0,0-52.28418-21.65674L23.31348,445.37256A24.80859,24.80859,0,0,0,16,463.0293ZM151.03027,340.28418A14.62689,14.62689,0,0,1,176,350.62744V360H160v16h16v16H160v16h16v16H160v16h16v16a16.01833,16.01833,0,0,1-16,16H144V456H128v16H112V456H96v16H80V456H64v16H40.9707a8.97038,8.97038,0,0,1-6.34277-15.314Z"/>
	<path d="M96,440h40a8.00008,8.00008,0,0,0,8-8V392a8.0001,8.0001,0,0,0-13.65723-5.65674l-40,40A8.00038,8.00038,0,0,0,96,440Zm32-28.68652V424H115.31348Z"/>
	<path d="M344,264V440a8.006,8.006,0,0,0,1.13965,4.11572l24,40a8.00046,8.00046,0,0,0,13.7207,0l24-40A8.006,8.006,0,0,0,408,440V264a8.00008,8.00008,0,0,0-8-8H352A8.00008,8.00008,0,0,0,344,264Zm40,168V328h8V432Zm-24,0V328h8V432Zm0-120v-8h32v8Zm16,152.45068L366.12939,448h19.74122ZM392,272v16H360V272Z"/><rect x="171.63263" y="143.63222" width="16.00036" height="24.0002" transform="translate(-57.43544 172.60323) rotate(-45)"/><rect x="248" y="112" width="16" height="24"/><rect x="320.36709" y="147.63214" width="24.0002" height="16.00036" transform="translate(-12.69518 280.61764) rotate(-45.00247)"/><rect x="352" y="224" width="24" height="16"/><rect x="136" y="224" width="24" height="16"/>
</svg>