<?xml version="1.0" encoding="iso-8859-1"?>
<!-- Generator: Adobe Illustrator 16.0.0, SVG Export Plug-In . SVG Version: 6.00 Build 0)  -->
<!DOCTYPE svg PUBLIC "-//W3C//DTD SVG 1.1//EN" "http://www.w3.org/Graphics/SVG/1.1/DTD/svg11.dtd">
<svg version="1.1" id="Capa_1" xmlns="http://www.w3.org/2000/svg" xmlns:xlink="http://www.w3.org/1999/xlink" x="0px" y="0px"
	 width="456.638px" height="456.638px" viewBox="0 0 456.638 456.638" style="enable-background:new 0 0 456.638 456.638;"
	 xml:space="preserve">
<g>
	<g>
		<path fill="red" d="M345.982,260.191c-6.244-8.786-12.963-16.791-20.019-23.836c3.344-15.913,5.042-32.139,5.042-48.286
			c0-77.256-38.19-149.007-99.674-187.255c-1.745-1.086-3.955-1.086-5.706,0c-61.472,38.248-99.673,110.004-99.673,187.255
			c0,15.654,1.587,31.395,4.725,46.841c-7.048,7.04-13.769,15.051-20.018,23.847c-0.965,1.365-1.247,3.09-0.768,4.693
			l34.555,113.922c0.58,1.914,2.151,3.328,4.1,3.729c1.938,0.391,3.947-0.327,5.221-1.846c9.495-11.443,22.649-20.461,37.547-25.861
			v6.012c0,2.985,2.421,5.4,5.4,5.4h63.194c2.984,0,5.399-2.415,5.399-5.4v-4.588c14.903,5.4,28.045,14.439,37.547,25.861
			c1.034,1.25,2.574,1.951,4.166,1.951c0.343,0,0.707-0.037,1.061-0.11c1.951-0.401,3.512-1.83,4.103-3.718l34.541-113.934
			C347.231,263.297,346.952,261.552,345.982,260.191z M264.381,153.072c-7.161,13.176-20.904,21.363-35.881,21.363
			c-14.23,0-27.205-7.264-34.712-19.43c-3.979-6.458-6.08-13.846-6.08-21.368c0-22.497,18.301-40.79,40.792-40.79
			c22.491,0,40.785,18.299,40.785,40.79C269.285,140.432,267.582,147.147,264.381,153.072z M277.227,309.898
			c-0.906,2.004-2.868,3.196-4.936,3.196c-0.738,0-1.481-0.158-2.215-0.485c-2.721-1.234-3.934-4.409-2.711-7.13
			c33.761-75.062,28.904-142.082,28.852-142.747c-0.248-2.969,1.967-5.571,4.941-5.816c3.011-0.203,5.568,1.978,5.811,4.946
			C307.196,164.702,312.163,232.189,277.227,309.898z"/>
		<path fill="red" d="M228.5,103.657c-16.534,0-29.992,13.458-29.992,29.99c0,5.521,1.55,10.947,4.477,15.699
			c5.524,8.955,15.066,14.289,25.521,14.289c11.021,0,21.12-6.015,26.383-15.715c2.362-4.351,3.607-9.292,3.607-14.283
			C258.485,117.115,245.038,103.657,228.5,103.657z"/>
		<path fill="red" d="M259.171,371.851h-62.234c-1.809,0-3.494,0.896-4.499,2.405c-1,1.508-1.181,3.417-0.48,5.073l31.119,74.007
			c0.844,2.004,2.808,3.302,4.981,3.302c2.167,0,4.134-1.298,4.978-3.302l31.124-74.007c0.696-1.667,0.517-3.565-0.485-5.073
			C262.667,372.747,260.984,371.851,259.171,371.851z M228.058,437.315l-22.995-54.664h45.992L228.058,437.315z"/>
	</g>
</g>
<g>
</g>
<g>
</g>
<g>
</g>
<g>
</g>
<g>
</g>
<g>
</g>
<g>
</g>
<g>
</g>
<g>
</g>
<g>
</g>
<g>
</g>
<g>
</g>
<g>
</g>
<g>
</g>
<g>
</g>
</svg>
