<svg height="512" viewBox="0 0 44 60" width="512" xmlns="http://www.w3.org/2000/svg">
<g id="Page-1" fill-rule="evenodd">
<g id="018---Ideas-Book" fill="rgb(0,0,0)" fill-rule="nonzero">
    <path fill="#0597f2" id="Shape" d="m7 60h33c2.209139 0 4-1.790861 4-4v-40c-.0068148-1.8184116-1.2393149-3.4034067-3-3.858v-8.142c0-2.209139-1.790861-4-4-4h-30c-3.86416566.00440864-6.99559136 3.13583434-7 7v46c.00440864 3.8641657 3.13583434 6.9955914 7 7zm35-44v40c0 1.1045695-.8954305 2-2 2h-32v-44h32c1.1045695 0 2 .8954305 2 2zm-35-14h30c1.1045695 0 2 .8954305 2 2h-32c-.55228475 0-1 .44771525-1 1s.44771525 1 1 1h32v2h-32c-.55228475 0-1 .44771525-1 1s.44771525 1 1 1h32v2h-32c-2.76142375 0-5-2.23857625-5-5s2.23857625-5 5-5zm-5 9.889c1.07343742 1.0988219 2.47946197 1.8127308 4 2.031v43.98c-2.3264168-.4784327-3.99700171-2.5248992-4-4.9z"/>
    <path fill="#0597f2" id="Shape" d="m32 48h-1v-4.191c.050579-2.6108179.8670506-5.1492519 2.348-7.3 1.0966258-1.6572565 1.6719936-3.6048696 1.652-5.592-.08358-5.3691093-4.3614925-9.7301351-9.728-9.917-3.7206048-.1009971-7.1894495 1.8727071-9.0033809 5.1227461-1.8139313 3.2500391-1.6727712 7.2385809.3663809 10.3522539 1.4867332 2.1620675 2.3087998 4.7116904 2.365 7.335v4.19h-1c-.5522847 0-1 .4477153-1 1s.4477153 1 1 1h1.35c.8440049 2.3970521 3.1087005 4.0006282 5.65 4.0006282s4.8059951-1.6035761 5.65-4.0006282h1.35c.5522847 0 1-.4477153 1-1s-.4477153-1-1-1zm-13.693-12.619c-1.6322737-2.4914877-1.7452298-5.6835047-.2931514-8.2841387 1.4520784-2.6006339 4.2287289-4.179223 7.2061514-4.0968613 4.2922572.1502278 7.7133816 3.6386313 7.78 7.933.0154914 1.5873428-.4442146 3.1430297-1.32 4.467-1.699081 2.4793161-2.6311178 5.4037554-2.68 8.409v1.191h-3v-6.08c2.339-.367 3-2 3-2.92-.0015733-.5364756-.4325844-.9728243-.969-.981-.5343892.0119156-.9761254.4201999-1.03.952-.012.172-.16 1.029-2 1.029-1.826 0-1.987-.844-2-1.024-.0066274-.5525609-.4599391-.9951274-1.0125-.9885-.5525609.0066275-.9951274.4599391-.9885 1.0125.1094202 1.5969452 1.4008443 2.8569446 3 2.927v6.073h-3v-1.19c-.0570692-3.0120668-.9930979-5.9418055-2.693-8.429zm6.693 16.619c-2.209139 0-4-1.790861-4-4v-1h8v1c0 2.209139-1.790861 4-4 4z"/>
    <path fill="#0597f2" id="Shape" d="m12 30h-1c-.5522847 0-1 .4477153-1 1s.4477153 1 1 1h1c.5522847 0 1-.4477153 1-1s-.4477153-1-1-1z"/>
    <path fill="#0597f2" id="Shape" d="m39 30h-1c-.5522847 0-1 .4477153-1 1s.4477153 1 1 1h1c.5522847 0 1-.4477153 1-1s-.4477153-1-1-1z"/>
    <path fill="#0597f2" id="Shape" d="m15.1 22.515c.3907415.3907414 1.0242585.3907414 1.415 0 .3907414-.3907415.3907414-1.0242585 0-1.415l-.707-.707c-.3923789-.3789722-1.0160848-.3735524-1.4018186.0121814s-.3911536 1.0094397-.0121814 1.4018186z"/>
    <path fill="#0597f2" id="Shape" d="m34.9 39.485c-.3907415-.3907414-1.0242585-.3907414-1.415 0-.3907414.3907415-.3907414 1.0242585 0 1.415l.707.707c.3923789.3789722 1.0160848.3735524 1.4018186-.0121814s.3911536-1.0094397.0121814-1.4018186z"/>
    <path fill="#0597f2" id="Shape" d="m15.1 39.485-.707.707c-.2599566.2510745-.3642126.6228779-.2726972.9725073.0915155.3496295.3645604.6226744.7141899.7141899.3496294.0915154.7214328-.0127406.9725073-.2726972l.707-.707c.3789722-.3923789.3735524-1.0160848-.0121814-1.4018186s-1.0094397-.3911536-1.4018186-.0121814z"/>
    <path fill="#0597f2" id="Shape" d="m34.192 20.394-.707.707c-.2525868.2527654-.3511379.6210837-.25853.966213s.3623054.6146361.7075.707c.3451947.0923638.7134432-.0064476.96603-.259213l.707-.707c.3789722-.3923789.3735524-1.0160848-.0121814-1.4018186s-1.0094397-.3911536-1.4018186-.0121814z"/>
</g>
</g>
</svg>