<svg height="512" viewBox="0 0 60 60" width="512" xmlns="http://www.w3.org/2000/svg"><g id="057---Web-Searching">
	<path fill="#0597f2" id="Shape" d="m46 0h-32c-1.6568542 0-3 1.34314575-3 3v21c0 1.6568542 1.3431458 3 3 3h10.5c.047 1.431-.2 2.121-1.221 4h-1.279c-1.6568542 0-3 1.3431458-3 3s1.3431458 3 3 3h16c1.6568542 0 3-1.3431458 3-3s-1.3431458-3-3-3h-1.275c-1.02-1.879-1.268-2.567-1.221-4h10.496c1.6568542 0 3-1.3431458 3-3v-21c0-1.65685425-1.3431458-3-3-3zm-33 3c0-.55228475.4477153-1 1-1h32c.5522847 0 1 .44771525 1 1v16h-34zm26 31c0 .5522847-.4477153 1-1 1h-16c-.5522847 0-1-.4477153-1-1s.4477153-1 1-1h16c.5522847 0 1 .4477153 1 1zm-4.531-3h-8.939c.7016851-1.212142 1.0385042-2.6010871.97-4h7c-.0686355 1.3987982.2678232 2.7876888.969 4zm11.531-6h-32c-.5522847 0-1-.4477153-1-1v-3h34v3c0 .5522847-.4477153 1-1 1z"/>
	<path fill="#0597f2" id="Shape" d="m45.446 39.335-.432.191c-1.0932283-.6208488-2.4147394-.6915912-3.568-.191l-.432.191c-1.0932283-.6208488-2.4147394-.6915912-3.568-.191l-3.809 1.665h-7.264l-3.815-1.667c-1.1519934-.5024688-2.4736365-.4312892-3.565.192l-.435-.192c-1.1529776-.5002567-2.4740359-.4295188-3.567.191l-.433-.191c-1.1523337-.5024846-2.4742811-.4313086-3.566.192l-.437-.192c-1.01511759-.4405288-2.16708955-.4423346-3.18358328-.0049905s-1.80728151 1.2750178-2.18541672 2.3149905c-4.359 12.027-3.151 8.519-5.039 14.457-.28665568.9115067-.1219543 1.9050483.44348996 2.6753007s1.46399142 1.2250759 2.41951004 1.2246993h13.24c1.3542694-.0033357 2.5393272-.9112661 2.895-2.218.164-.6.348-1.187.521-1.782h20.677c.174.594.361 1.189.522 1.782.3565734 1.3061288 1.5410805 2.2136372 2.895 2.218h13.24c.9539324-.0024848 1.8498231-.4584989 2.4131756-1.2283218.5633524-.7698228.7270083-1.7616826.4408244-2.6716782-1.837-5.811-.8-2.783-5.034-14.458-.3788555-1.0402763-1.1706453-1.8778223-2.1880202-2.3144623s-2.1699395-.4335777-3.1849798.0084623l-.433.191c-1.0930684-.6211729-2.414584-.6922859-3.568-.192zm-29.196 18.665h-13.24c-.31897569.0009768-.61928037-.1502767-.80838273-.4071556-.18910235-.2568788-.24431192-.58856-.14861727-.8928444 1.9-5.973.705-2.49 5.014-14.384.35123915-.9730288 1.38826384-1.5158599 2.388-1.25-.239.432.01-.192-3.165 8.589-.18832909.5194238.0800762 1.0931709.59950001 1.2815.5194238.1883291 1.09317088-.0800762 1.28149999-.5995l2.9-8.013c.3527652-.9661915 1.3808603-1.5072715 2.377-1.251-.218.4 0-.14-3.165 8.582-.1883291.5194238.0800762 1.0931709.5995 1.2815s1.0931709-.0800762 1.2815-.5995c3.325-9.152 2.9-7.962 2.933-8.08.3779491-.9294476 1.386069-1.4350045 2.357-1.182-.211.381.077-.374-3.171 8.58-.1883291.5194238.0800762 1.0931709.5995 1.2815s1.0931709-.0800762 1.2815-.5995c3.18-8.767 2.943-8.431 3.554-8.9.5774963-.4636546 1.3639316-.5702312 2.044-.277l4.624 2.022c.7568142.3328066 1.1016475 1.21524.771 1.973-.3380975.7501227-1.2128205 1.0936212-1.971.774l-2.67-1.17c-.2529573-.1109251-.5405293-.1122838-.7945235-.0037539-.2539941.10853-.4517873.3172819-.5464765.5767539-1.577 4.322-2.626 7.026-3.956 11.921-.1130225.4420501-.5127411.7501923-.969.747zm4-4c.83-2.646 1.468-4.33 2.434-6.977l1.7.747c1.3466226.5761533 2.9096834.25097 3.9147902-.8144432s1.2387639-2.6447509.5852098-3.9555568h2.221c-.6565328 1.3143113-.4207489 2.898928.5899973 3.9651557 1.0107463 1.0662277 2.5805154 1.3862734 3.9280027.8008443l1.694-.743c1.009 2.784 1.594 4.322 2.429 6.977zm32.688-11.682c4.347 12 3.262 8.854 5.01 14.387.0932881.3021263.0381874.6305737-.1485887.8857162-.186776.2551424-.4832193.4069159-.7994113.4092838h-13.24c-.4536159.0018197-.8507993-.303991-.965-.743-1.255-4.614-2.452-7.782-3.955-11.92-.0946892-.259472-.2924824-.4682239-.5464765-.5767539-.2539942-.1085299-.5415662-.1071712-.7945235.0037539l-2.66 1.166c-.5560539.2444229-1.2046254.129379-1.6426888-.291381-.4380635-.4207599-.5791382-1.0641711-.3573112-1.629619.1452334-.3704603.433615-.6667724.8-.822l4.617-2.02c.5084057-.2161145 1.0829724-.215473 1.5908942.0017764.5079219.2172494.9052356.6323024 1.1001058 1.1492236 2 5.528.907 2.491 2.912 8.023.1190237.3396119.4113448.5890806.7654451.6532355.3541004.0641549.7153636-.066899.9459705-.3431659.2306069-.2762668.2949887-.6551351.1685844-.9920696-3.176-8.759-2.955-8.191-3.168-8.579.6140779-.1574877 1.2664643-.0158902 1.76.382.593.442.425.337 3.528 8.879.1190237.3396119.4113448.5890806.7654451.6532355.3541004.0641549.7153636-.066899.9459705-.3431659.2306069-.2762668.2949887-.6551351.1685844-.9920696-3.21-8.835-2.956-8.2-3.163-8.581.6079955-.1542564 1.2531469-.0155341 1.744.375.595.457.387.2 3.529 8.888.1883291.5194238.7620762.7878291 1.2815.5995s.7878291-.7620762.5995-1.2815c-3.149-8.7-2.927-8.159-3.166-8.59.9950247-.2582238 2.0232069.2827195 2.374 1.249z"/><path fill="#0597f2" id="Shape" d="m24.2 7.02c-.2600757-.05477394-.531255-.00311177-.7529746.14344867-.2217197.14656045-.3755103.37581055-.4270254.63655133l-.58 2.9-.659-.824c-.1963931-.22634907-.4813266-.35636072-.781-.35636072s-.5846069.13001165-.781.35636072l-.659.824-.58-2.9c-.1238056-.52447743-.640941-.85652496-1.1693679-.75083958s-.8780721.61108903-.7906321 1.14283958l1 5c.0762509.3810277.3663277.6833835.7438688.7753569.377541.0919734.7741784-.0430909 1.0171312-.3463569l1.219-1.521 1.219 1.524c.242247.303187.6380341.4388399 1.0153318.3479971s.667967-.3917755.7456682-.7719971l1-5c.0530985-.25991748.0007425-.53028249-.1455449-.75158898-.1462873-.2213065-.3745164-.37541646-.6344551-.42841102z"/><path fill="#0597f2" id="Shape" d="m33.2 7.02c-.2600757-.05477394-.531255-.00311177-.7529746.14344867-.2217197.14656045-.3755103.37581055-.4270254.63655133l-.58 2.9-.659-.824c-.1963931-.22634907-.4813266-.35636072-.781-.35636072s-.5846069.13001165-.781.35636072l-.659.824-.58-2.9c-.1238056-.52447743-.640941-.85652496-1.1693679-.75083958s-.8780721.61108903-.7906321 1.14283958l1 5c.0762509.3810277.3663277.6833835.7438688.7753569.377541.0919734.7741784-.0430909 1.0171312-.3463569l1.219-1.521 1.219 1.524c.242247.303187.6380341.4388399 1.0153318.3479971s.667967-.3917755.7456682-.7719971l1-5c.0530985-.25991748.0007425-.53028249-.1455449-.75158898-.1462873-.2213065-.3745164-.37541646-.6344551-.42841102z"/><path fill="#0597f2" id="Shape" d="m42.2 7.02c-.2600757-.05477394-.531255-.00311177-.7529746.14344867-.2217197.14656045-.3755103.37581055-.4270254.63655133l-.58 2.9-.659-.824c-.1963931-.22634907-.4813266-.35636072-.781-.35636072s-.5846069.13001165-.781.35636072l-.659.824-.58-2.9c-.0593016-.36063222-.3106176-.66018848-.6554537-.78126849-.3448361-.12108-.728259-.04439542-1 .2s-.388511.61756888-.3045463.97326849l1 5c.0762509.3810277.3663277.6833835.7438688.7753569.377541.0919734.7741784-.0430909 1.0171312-.3463569l1.219-1.521 1.219 1.524c.242247.303187.6380341.4388399 1.0153318.3479971s.667967-.3917755.7456682-.7719971l1-5c.0530985-.25991748.0007425-.53028249-.1455449-.75158898-.1462873-.2213065-.3745164-.37541646-.6344551-.42841102z"/><circle id="Oval" cx="44" cy="13" r="1"/><path fill="#0597f2" id="Shape" d="m31 22h-2c-.5522847 0-1 .4477153-1 1s.4477153 1 1 1h2c.5522847 0 1-.4477153 1-1s-.4477153-1-1-1z"/></g></svg>