<svg id="Glyph" height="512" viewBox="0 0 512 512" width="512" xmlns="http://www.w3.org/2000/svg">
	<path fill="white" d="m252.137 207.612 211.463-123.96a24.035 24.035 0 0 0 -23.6-19.652h-400a24.035 24.035 0 0 0 -23.6 19.652l211.461 123.96a24.021 24.021 0 0 0 24.276 0z"/>
	<path fill="white" d="m400 240a111.373 111.373 0 0 1 64 20.141v-158.178l-203.771 119.452a40.039 40.039 0 0 1 -40.458 0l-203.771-119.452v242.037a24.028 24.028 0 0 0 24 24h249.148a112 112 0 0 1 110.852-128z"/>
	<path fill="red" d="m400 256a96 96 0 1 0 96 96 96.108 96.108 0 0 0 -96-96zm45.255 129.94a8 8 0 0 1 -11.314 11.315l-33.941-33.941-33.941 33.941a8 8 0 0 1 -11.314-11.315l33.941-33.94-33.941-33.94a8 8 0 0 1 11.314-11.315l33.941 33.941 33.941-33.941a8 8 0 0 1 11.314 11.315l-33.941 33.94z"/>
</svg>