<?xml version="1.0" encoding="UTF-8" standalone="no"?>
<svg
   xmlns:dc="http://purl.org/dc/elements/1.1/"
   xmlns:cc="http://creativecommons.org/ns#"
   xmlns:rdf="http://www.w3.org/1999/02/22-rdf-syntax-ns#"
   xmlns:svg="http://www.w3.org/2000/svg"
   xmlns="http://www.w3.org/2000/svg"
   xmlns:sodipodi="http://sodipodi.sourceforge.net/DTD/sodipodi-0.dtd"
   xmlns:inkscape="http://www.inkscape.org/namespaces/inkscape"
   width="210mm"
   height="297mm"
   viewBox="0 0 210 297"
   version="1.1"
   id="svg8"
   inkscape:version="1.0.1 (3bc2e813f5, 2020-09-07)"
   sodipodi:docname="eeuu.svg">
  <defs
     id="defs2" />
  <sodipodi:namedview
     id="base"
     pagecolor="#ffffff"
     bordercolor="#666666"
     borderopacity="1.0"
     inkscape:pageopacity="0.0"
     inkscape:pageshadow="2"
     inkscape:zoom="0.5"
     inkscape:cx="-150"
     inkscape:cy="560"
     inkscape:document-units="mm"
     inkscape:current-layer="g935"
     inkscape:document-rotation="0"
     showgrid="false"
     inkscape:window-width="1920"
     inkscape:window-height="1027"
     inkscape:window-x="-8"
     inkscape:window-y="-8"
     inkscape:window-maximized="1" />
  <metadata
     id="metadata5">
    <rdf:RDF>
      <cc:Work
         rdf:about="">
        <dc:format>image/svg+xml</dc:format>
        <dc:type
           rdf:resource="http://purl.org/dc/dcmitype/StillImage" />
        <dc:title></dc:title>
      </cc:Work>
    </rdf:RDF>
  </metadata>
  <g
     inkscape:label="Capa 1"
     inkscape:groupmode="layer"
     id="layer1">
    <g
       transform="matrix(0.03527778,0,0,-0.03527778,0.75594571,295.95536)"
       fill="#000000"
       stroke="none"
       id="g18">
      <path
         style="fill:#bf0a30;fill-opacity:1;stroke-width:2.85714"
         d=""
         id="path911"
         transform="matrix(7.4999995,0,0,-7.4999995,-21.428381,8389.2853)" />
      <path
         style="fill:#bf0a30;fill-opacity:1;stroke-width:2.85714"
         d=""
         id="path917"
         transform="matrix(7.4999995,0,0,-7.4999995,-21.428381,8389.2853)" />
      <path
         style="fill:#bf0a30;fill-opacity:1;stroke-width:2.85714"
         d=""
         id="path919"
         transform="matrix(7.4999995,0,0,-7.4999995,-21.428381,8389.2853)" />
      <path
         style="fill:#bf0a30;fill-opacity:1;stroke-width:2.85714"
         d=""
         id="path921"
         transform="matrix(7.4999995,0,0,-7.4999995,-21.428381,8389.2853)" />
      <path
         style="fill:#bf0a30;fill-opacity:1;stroke-width:2.85714"
         d=""
         id="path923"
         transform="matrix(7.4999995,0,0,-7.4999995,-21.428381,8389.2853)" />
      <g
         transform="translate(-21.428568,2035.7141)"
         fill="#000000"
         stroke="none"
         id="g935">
        <path
           d="m 0,2301 v -851 l 1802,6 c 991,4 2341,7 3000,7 h 1198 v 115 115 H 4200 2400 v 125 125 h 1800 1800 v 120 120 H 4200 2400 v 120 120 h 1800 1800 v 120 120 H 4200 2400 v 125 125 h 1800 1800 v 120 120 H 3000 0 Z"
           id="path927"
           style="fill:#000080" />
        <path
           d="M 0,1090 V 970 h 3000 3000 v 120 120 H 3000 0 Z"
           id="path929"
           style="fill:#bf0a30;fill-opacity:1" />
        <path
           d="M 0,610 V 490 H 3000 6000 V 610 730 H 3000 0 Z"
           id="path931"
           style="fill:#bf0a30;fill-opacity:1" />
        <path
           d="M 0,120 V 0 H 3000 6000 V 120 240 H 3000 0 Z"
           id="path933"
           style="fill:#bf0a30;fill-opacity:1" />
        <path
           d="m 2400,1573 v -120 h 1800 1800 v 120 120 H 4200 2400 Z"
           id="path929-6"
           style="fill:#bf0a30;fill-opacity:1;stroke-width:0.774594" />
        <path
           d="m 2400.0001,2533 v -120 h 1800 1800 v 120 120 h -1800 -1800 z"
           id="path929-6-6"
           style="fill:#bf0a30;fill-opacity:1;stroke-width:0.774594" />
        <path
           d="m 2400.0001,2053 v -120 h 1800 1800 v 120 120 h -1800 -1800 z"
           id="path929-6-0"
           style="fill:#bf0a30;fill-opacity:1;stroke-width:0.774594" />
        <path
           d="m 2400.0001,3013 v -120 h 1792.5 1792.5 v 120 120 h -1792.5 -1792.5 z"
           id="path929-6-7-9"
           style="fill:#bf0a30;fill-opacity:1;stroke-width:0.772979" />
      </g>
    </g>
  </g>
</svg>
