<?xml version="1.0" encoding="iso-8859-1"?>
<!-- Generator: Adobe Illustrator 19.0.0, SVG Export Plug-In . SVG Version: 6.00 Build 0)  -->
<svg version="1.1" id="Capa_1" xmlns="http://www.w3.org/2000/svg" xmlns:xlink="http://www.w3.org/1999/xlink" x="0px" y="0px"
	 viewBox="0 0 368 368" style="enable-background:new 0 0 368 368;" xml:space="preserve">
<path style="fill:#CCE4FF;" d="M328,248v48c0,17.68-14.32,32-32,32h-48h-64h-64H72c-17.68,0-32-14.32-32-32v-48v-64v-64V72
	c0-17.68,14.32-32,32-32h48h64h64h48c17.68,0,32,14.32,32,32v48v64V248z M280,264V136v-32c0-8.8-7.2-16-16-16H104
	c-8.8,0-16,7.2-16,16v32v128c0,8.8,7.2,16,16,16h32h96h32C272.8,280,280,272.8,280,264z"/>
<g>
	<path style="fill:#0597f2;" d="M360,128c4.416,0,8-3.584,8-8s-3.584-8-8-8h-24V72c0-22.056-17.944-40-40-40h-40V8
		c0-4.416-3.584-8-8-8s-8,3.584-8,8v24h-48V8c0-4.416-3.584-8-8-8s-8,3.584-8,8v24h-48V8c0-4.416-3.584-8-8-8s-8,3.584-8,8v24H72
		c-22.056,0-40,17.944-40,40v40H8c-4.416,0-8,3.584-8,8s3.584,8,8,8h24v48H8c-4.416,0-8,3.584-8,8c0,4.416,3.584,8,8,8h24v48H8
		c-4.416,0-8,3.576-8,8s3.584,8,8,8h24v40c0,22.056,17.944,40,40,40h40v24c0,4.424,3.584,8,8,8s8-3.576,8-8v-24h48v24
		c0,4.424,3.584,8,8,8c4.416,0,8-3.576,8-8v-24h48v24c0,4.424,3.584,8,8,8s8-3.576,8-8v-24h40c22.056,0,40-17.944,40-40v-40h24
		c4.416,0,8-3.576,8-8s-3.584-8-8-8h-24v-48h24c4.416,0,8-3.584,8-8s-3.584-8-8-8h-24v-48H360z M320,296c0,13.232-10.768,24-24,24
		H72c-13.232,0-24-10.768-24-24V72c0-13.232,10.768-24,24-24h224c13.232,0,24,10.768,24,24V296z"/>
	<path style="fill:#0597f2;" d="M264,80H104c-13.232,0-24,10.768-24,24v160c0,13.232,10.768,24,24,24h160c13.232,0,24-10.768,24-24
		V104C288,90.768,277.232,80,264,80z M104,96h160c4.408,0,8,3.592,8,8v24H96v-24C96,99.592,99.592,96,104,96z M224,272h-80v-32h80
		V272z M264,272h-24v-40c0-4.424-3.584-8-8-8h-96c-4.416,0-8,3.576-8,8v40h-24c-4.408,0-8-3.584-8-8V144h176v120
		C272,268.416,268.408,272,264,272z"/>
</g>
<g>
</g>
<g>
</g>
<g>
</g>
<g>
</g>
<g>
</g>
<g>
</g>
<g>
</g>
<g>
</g>
<g>
</g>
<g>
</g>
<g>
</g>
<g>
</g>
<g>
</g>
<g>
</g>
<g>
</g>
</svg>
