<?xml version="1.0" encoding="UTF-8" standalone="no"?>
<!-- Created with Inkscape (http://www.inkscape.org/) -->

<svg
   xmlns:dc="http://purl.org/dc/elements/1.1/"
   xmlns:cc="http://creativecommons.org/ns#"
   xmlns:rdf="http://www.w3.org/1999/02/22-rdf-syntax-ns#"
   xmlns:svg="http://www.w3.org/2000/svg"
   xmlns="http://www.w3.org/2000/svg"
   xmlns:sodipodi="http://sodipodi.sourceforge.net/DTD/sodipodi-0.dtd"
   xmlns:inkscape="http://www.inkscape.org/namespaces/inkscape"
   width="64"
   height="64"
   viewBox="0 0 16.933333 16.933334"
   version="1.1"
   id="svg8"
   inkscape:version="0.92.4 (5da689c313, 2019-01-14)"
   sodipodi:docname="mallorca.svg">
  <defs
     id="defs2" />
  <sodipodi:namedview
     id="base"
     pagecolor="#ffffff"
     bordercolor="#666666"
     borderopacity="1.0"
     inkscape:pageopacity="0.0"
     inkscape:pageshadow="2"
     inkscape:zoom="0.88"
     inkscape:cx="-390"
     inkscape:cy="241.81818"
     inkscape:document-units="mm"
     inkscape:current-layer="layer1"
     showgrid="false"
     units="px"
     inkscape:window-width="1920"
     inkscape:window-height="1017"
     inkscape:window-x="-4"
     inkscape:window-y="-4"
     inkscape:window-maximized="1" />
  <metadata
     id="metadata5">
    <rdf:RDF>
      <cc:Work
         rdf:about="">
        <dc:format>image/svg+xml</dc:format>
        <dc:type
           rdf:resource="http://purl.org/dc/dcmitype/StillImage" />
        <dc:title></dc:title>
      </cc:Work>
    </rdf:RDF>
  </metadata>
  <g
     inkscape:label="Capa 1"
     inkscape:groupmode="layer"
     id="layer1"
     transform="translate(0,-280.06665)">
    <path
       style="fill:#0597f2;stroke-width:0.06463104"
       d="m 9.9792089,294.23939 c -0.1092747,-0.0778 -0.4826727,-0.61635 -0.4826727,-0.69615 0,-0.0406 -0.07627,-0.10859 -0.169483,-0.15106 -0.151944,-0.0692 -0.165415,-0.10267 -0.130164,-0.32311 0.033,-0.20634 0.01385,-0.26982 -0.119052,-0.39467 -0.132718,-0.12469 -0.203726,-0.14257 -0.438385,-0.11041 -0.178703,0.0245 -0.384148,0.002 -0.567827,-0.0615 -0.182614,-0.0634 -0.390217,-0.086 -0.567986,-0.0621 -0.177495,0.0239 -0.39067,7.2e-4 -0.581679,-0.0633 -0.252199,-0.0846 -0.341985,-0.16307 -0.549042,-0.48009 -0.233768,-0.35791 -0.2451,-0.39849 -0.20373,-0.72961 0.03281,-0.26257 0.01788,-0.40076 -0.05946,-0.55031 -0.143299,-0.27711 -0.129521,-0.41745 0.05831,-0.5939 0.08887,-0.0835 0.161578,-0.19935 0.161578,-0.25747 0,-0.10157 -0.589074,-0.66044 -0.867284,-0.82281 -0.200858,-0.11723 -0.384268,-0.0991 -0.47556,0.0471 -0.06115,0.0979 -0.122202,0.11995 -0.246148,0.0888 -0.124529,-0.0312 -0.188359,-0.008 -0.261051,0.096 -0.06663,0.0951 -0.165079,0.13737 -0.3201475,0.13737 -0.1845326,0 -0.2360249,0.0313 -0.2926793,0.17774 -0.037813,0.0977 -0.1245217,0.29407 -0.192687,0.43626 -0.068166,0.14219 -0.1238564,0.29132 -0.1237577,0.3314 4.589e-4,0.18606 -0.1674794,0.19623 -0.4522377,0.0274 -0.2883761,-0.17098 -0.2913182,-0.17631 -0.3473313,-0.62919 l -0.056492,-0.45675 -0.3199728,-0.0379 c -0.2006574,-0.0238 -0.3695191,-0.009 -0.4528432,0.0404 -0.1068161,0.063 -0.1390872,0.061 -0.1645739,-0.01 -0.017437,-0.0485 -0.086347,-0.13491 -0.1531333,-0.1921 -0.066787,-0.0572 -0.12143,-0.15235 -0.12143,-0.21148 0,-0.0591 -0.043447,-0.19082 -0.096548,-0.29263 -0.053102,-0.10182 -0.096728,-0.23602 -0.096946,-0.29823 -4.266e-4,-0.12122 -0.1604885,-0.15546 -0.2266069,-0.0485 -0.060983,0.0987 -0.22552721,0.077 -0.26865891,-0.0354 -0.050279,-0.13102 0.1540225,-0.28305 0.38391181,-0.28567 0.2568501,-0.003 0.7225996,-0.25247 1.7749366,-0.95096 0.6823343,-0.4529 0.9545241,-0.6004 1.0512691,-0.56969 0.3004298,0.0953 0.9007998,-0.31893 1.1576218,-0.7988 0.04079,-0.0762 0.120609,-0.13859 0.177368,-0.13859 0.05676,0 0.205639,-0.10862 0.330843,-0.24137 0.252953,-0.26821 0.307149,-0.30419 0.944373,-0.62696 0.245198,-0.1242 0.515168,-0.29097 0.599935,-0.37061 0.124478,-0.11694 0.223068,-0.14317 0.512561,-0.13639 0.313387,0.007 0.408569,-0.0234 0.757316,-0.24468 0.219383,-0.13918 0.443627,-0.25334 0.498318,-0.25368 0.05469,-3.3e-4 0.21314,-0.0586 0.352109,-0.12943 0.213504,-0.10885 0.284511,-0.1173 0.458089,-0.0545 0.1790379,0.0647 0.231267,0.0559 0.406692,-0.069 0.283538,-0.20189 0.611176,-0.24354 0.823166,-0.10464 0.142323,0.0933 0.195609,0.0986 0.320047,0.032 0.08211,-0.0439 0.195171,-0.0623 0.251241,-0.0408 0.05961,0.0229 0.218826,-0.0433 0.383425,-0.15929 0.287652,-0.20275 0.384098,-0.21929 0.864443,-0.14824 0.293462,0.0434 0.345802,0.13992 0.161577,0.29793 -0.174304,0.14949 -0.686225,0.37544 -0.850631,0.37544 -0.08104,0 -0.224934,0.0552 -0.319755,0.12276 -0.09482,0.0675 -0.244729,0.13296 -0.333132,0.14542 -0.200113,0.0282 -0.25402,0.30792 -0.0908,0.47114 0.140926,0.14093 0.528015,0.0858 0.923832,-0.13158 0.155553,-0.0854 0.337327,-0.15532 0.403944,-0.15532 0.144095,0 0.159458,0.14625 0.02692,0.25624 -0.05909,0.049 -0.08135,0.14245 -0.05973,0.25057 0.05329,0.26645 -0.220815,0.4902 -0.60895,0.49708 l -0.303531,0.005 -0.02021,0.27779 c -0.01528,0.20996 0.01858,0.33641 0.13863,0.51782 0.200666,0.30322 1.082573,0.90984 1.321544,0.90901 0.246062,-8.4e-4 0.812815,-0.34123 1.019624,-0.61237 0.197302,-0.25868 0.343637,-0.28559 0.516185,-0.0949 0.151577,0.1675 0.826498,0.63003 1.03499,0.70929 0.10739,0.0408 0.157937,0.11006 0.157937,0.21632 0,0.0859 0.04363,0.173 0.09695,0.19346 0.138211,0.053 0.120488,0.1562 -0.06463,0.3762 -0.113846,0.1353 -0.161578,0.26896 -0.161578,0.45245 0,0.34976 -0.311351,0.7608 -0.56305,0.74332 -0.254528,-0.0177 -0.401613,0.26123 -0.290666,0.55116 0.07151,0.18688 0.06765,0.22033 -0.03199,0.27716 -0.06232,0.0356 -0.203254,0.15916 -0.313177,0.27468 -0.109924,0.11553 -0.220851,0.21005 -0.246505,0.21005 -0.02565,0 -0.200693,0.11381 -0.388974,0.2529 -0.385788,0.285 -0.569646,0.6298 -0.720641,1.35148 -0.05259,0.25134 -0.138858,0.46756 -0.209899,0.52606 -0.06634,0.0546 -0.216029,0.252 -0.332646,0.43859 -0.151674,0.24268 -0.288313,0.37339 -0.480013,0.45919 -0.147392,0.066 -0.322874,0.18176 -0.389962,0.25732 -0.06709,0.0756 -0.227049,0.15688 -0.355471,0.18071 -0.285457,0.053 -0.453957,0.15587 -0.908863,0.555 -0.341787,0.29989 -0.480835,0.35817 -0.6193101,0.25957 z m 0.3959871,-0.3482 c 0.265479,-0.30003 0.880417,-0.70106 1.074985,-0.70106 0.140609,0 0.265907,-0.0715 0.45291,-0.25853 0.142188,-0.14219 0.309709,-0.25852 0.372269,-0.25852 0.140595,0 0.196504,-0.0682 0.423728,-0.51705 0.09898,-0.19551 0.214607,-0.3991 0.25695,-0.45242 0.04234,-0.0533 0.111982,-0.24062 0.154752,-0.41623 0.15295,-0.62798 0.386905,-0.99722 0.810759,-1.27957 0.478266,-0.3186 0.81628,-0.68655 0.770941,-0.83921 -0.04615,-0.15541 0.193782,-0.67097 0.351554,-0.75541 0.07186,-0.0385 0.17292,-0.0537 0.224573,-0.0339 0.131342,0.0504 0.367867,-0.35311 0.367867,-0.62759 0,-0.12119 0.04394,-0.28308 0.09764,-0.35975 0.0618,-0.0882 0.07366,-0.15422 0.03231,-0.17978 -0.03593,-0.0222 -0.06532,-0.0968 -0.06532,-0.16582 0,-0.0809 -0.04435,-0.12544 -0.124906,-0.12544 -0.0687,0 -0.14291,-0.0567 -0.164915,-0.12606 -0.022,-0.0693 -0.147571,-0.19029 -0.279037,-0.26881 -0.131466,-0.0785 -0.316726,-0.21409 -0.41169,-0.30128 l -0.17266,-0.15852 -0.225507,0.22551 c -0.449262,0.44926 -1.389975,0.78876 -1.486753,0.53656 -0.01954,-0.0509 -0.189886,-0.19161 -0.378543,-0.31263 -0.38829,-0.24908 -0.801099,-0.67989 -0.9,-0.93925 -0.07312,-0.19174 -0.0193,-0.70863 0.08726,-0.83807 0.04389,-0.0533 0.143444,-0.0678 0.284366,-0.0414 0.299661,0.0562 0.540837,-0.0142 0.540837,-0.1579 0,-0.17743 -0.04769,-0.1939 -0.309386,-0.1068 -0.541373,0.18017 -0.656273,0.17564 -0.866092,-0.0342 -0.163642,-0.16364 -0.190449,-0.23378 -0.166548,-0.43574 0.01567,-0.13239 0.04716,-0.28434 0.06998,-0.33766 0.02936,-0.0686 -0.03047,-0.13002 -0.204607,-0.21005 -0.318708,-0.14647 -0.431676,-0.14256 -0.701668,0.0243 -0.170602,0.10543 -0.285161,0.12896 -0.4923618,0.1011 -0.182457,-0.0245 -0.310715,-0.006 -0.395486,0.0565 -0.069,0.051 -0.185337,0.0929 -0.258524,0.0931 -0.07319,1.5e-4 -0.293028,0.10134 -0.488537,0.22487 -0.486057,0.30712 -0.592437,0.34832 -0.950148,0.368 -0.207253,0.0114 -0.370772,0.0659 -0.492852,0.16438 -0.100481,0.081 -0.225247,0.14732 -0.277256,0.14732 -0.175258,0 -0.596723,0.25528 -0.638433,0.3867 -0.02275,0.0717 -0.06122,0.13257 -0.08549,0.13529 -0.199227,0.0223 -0.30079,0.0656 -0.346675,0.14755 -0.02954,0.0528 -0.162599,0.16209 -0.29568,0.24288 -0.133082,0.0808 -0.266203,0.1866 -0.295826,0.23512 -0.276176,0.45236 -0.783999,0.79139 -1.1854113,0.79139 -0.1961792,0 -0.3977725,0.1031 -1.0528292,0.53842 -0.4456044,0.29614 -0.9628511,0.62333 -1.1494371,0.7271 -0.2991657,0.16639 -0.3392551,0.2131 -0.339313,0.3954 -4.17e-5,0.13099 0.059127,0.27059 0.1615119,0.38106 0.088868,0.0959 0.1615776,0.21373 0.1615776,0.26186 0,0.10384 0.034076,0.10841 0.1892139,0.0254 0.080877,-0.0433 0.1530966,-0.035 0.2381174,0.0273 0.067118,0.0492 0.1954108,0.0748 0.2850952,0.057 0.257575,-0.0513 0.3958273,0.15588 0.4201402,0.62958 0.01984,0.38654 0.08441,0.50826 0.2708844,0.51061 0.09673,0.001 0.21416,-0.19841 0.3415869,-0.58069 0.087284,-0.26186 0.1269685,-0.3005 0.398174,-0.38779 0.1656751,-0.0533 0.3570111,-0.14784 0.4251911,-0.21005 0.06818,-0.0622 0.183551,-0.1131 0.25638,-0.1131 0.07283,0 0.168623,-0.0436 0.212876,-0.0969 0.1063,-0.12808 0.232652,-0.12051 0.574104,0.0344 0.283473,0.12862 1.106303,0.92107 1.106303,1.06546 0,0.0421 -0.0863,0.16692 -0.19177,0.27729 -0.190161,0.19899 -0.190912,0.20272 -0.08952,0.44538 0.06958,0.16653 0.09119,0.3518 0.06765,0.57994 -0.02982,0.28893 -0.01005,0.3738 0.143117,0.61446 0.09774,0.15358 0.229763,0.32202 0.293377,0.37431 0.111111,0.0913 0.840593,0.18193 1.748399,0.21715 0.586208,0.0228 0.872519,0.2438 0.872519,0.67365 0,0.13277 0.03767,0.22831 0.09935,0.25198 0.05465,0.021 0.143285,0.14327 0.196978,0.27177 0.109854,0.26292 0.3341178,0.52625 0.4481738,0.52625 0.04162,0 0.131068,-0.0626 0.198784,-0.13914 z m 1.969354,-10.65652 c 0.131067,-0.0701 0.17327,-0.25625 0.05811,-0.25625 -0.116133,0 -0.385989,0.20547 -0.348828,0.2656 0.04676,0.0756 0.137339,0.0727 0.290719,-0.009 z"
       id="path52"
       inkscape:connector-curvature="0" />
  </g>
</svg>
