<svg height="512pt" viewBox="0 -56 512 512" width="512pt" xmlns="http://www.w3.org/2000/svg"><path d="m232.453125 224.4375h16.03125v15.03125h-16.03125zm0 0"/><path d="m200.390625 224.4375h16.03125v15.03125h-16.03125zm0 0"/><path d="m168.328125 224.4375h16.03125v15.03125h-16.03125zm0 0"/><path d="m40.078125 279.546875h264.515625v-15.03125h-249.484375v-209.40625h313.609375v-15.03125h-328.640625zm0 0"/><path d="m87.171875 127.25v-40.078125h41.078125v-15.03125h-56.109375v55.109375zm0 0"/><path d="m415.8125 72.140625v-72.140625h-415.8125v319.625h168.328125v28.949219l-32.0625 32.0625v19.144531h143.28125v-19.144531l-32.0625-32.0625v-28.949219h73.140625v80.15625h191.375v-327.640625zm-153.40625 312.609375h-108l25.050781-25.046875h57.898438zm-79.046875-40.078125v-25.046875h49.09375v25.046875zm137.265625-40.078125h-305.59375v-289.5625h385.75v57.109375h-80.15625zm136.265625 80.15625h-81.15625v-25.046875h81.15625zm40.078125 0h-25.046875v-40.078125h-111.21875v40.078125h-25.046875v-169.328125h161.3125zm0-184.359375h-161.3125v-25.046875h161.3125zm0-40.078125h-161.3125v-25.046875h161.3125zm0-40.078125h-161.3125v-33.0625h161.3125zm0 0"/><path d="m416.8125 307.101562c12.984375 0 23.546875-10.5625 23.546875-23.546874 0-12.984376-10.5625-23.546876-23.546875-23.546876-12.980469 0-23.542969 10.5625-23.542969 23.546876 0 12.984374 10.5625 23.546874 23.542969 23.546874zm0-32.0625c4.699219 0 8.519531 3.820313 8.519531 8.515626 0 4.695312-3.820312 8.515624-8.519531 8.515624-4.695312 0-8.515625-3.820312-8.515625-8.515624 0-4.695313 3.820313-8.515626 8.515625-8.515626zm0 0"/></svg>