<?xml version="1.0" encoding="iso-8859-1"?>
<!-- Generator: Adobe Illustrator 19.0.0, SVG Export Plug-In . SVG Version: 6.00 Build 0)  -->
<svg version="1.1" id="Capa_1" xmlns="http://www.w3.org/2000/svg" xmlns:xlink="http://www.w3.org/1999/xlink" x="0px" y="0px"
	 viewBox="0 0 512 512" style="enable-background:new 0 0 512 512;" xml:space="preserve">
<g>
	<g>
		<g>
			<path fill="#0597f2" d="M227.925,96.342c-3.421-3.158-8.695-3.158-12.117,0c-0.754,0.828-1.362,1.78-1.796,2.813
				c-0.436,1.027-0.667,2.13-0.679,3.246c0,4.713,3.82,8.533,8.533,8.533s8.533-3.82,8.533-8.533
				c-0.013-1.116-0.245-2.219-0.683-3.246C229.282,98.122,228.676,97.171,227.925,96.342z"/>
			<path fill="#0597f2" d="M262.058,96.342c-0.816-0.772-1.772-1.382-2.817-1.796c-1.557-0.679-3.287-0.857-4.95-0.508
				c-0.535,0.091-1.053,0.263-1.537,0.508c-0.543,0.188-1.058,0.448-1.533,0.771c-0.429,0.341-0.854,0.683-1.279,1.025
				c-0.773,0.814-1.383,1.769-1.796,2.813c-0.437,1.027-0.667,2.13-0.679,3.246c0.032,2.259,0.916,4.423,2.475,6.059
				c0.425,0.341,0.85,0.683,1.279,1.021c0.475,0.323,0.991,0.582,1.533,0.771c0.485,0.245,1.003,0.418,1.537,0.513
				c0.565,0.098,1.136,0.155,1.708,0.171c1.115-0.014,2.216-0.246,3.242-0.683c1.054-0.394,2.013-1.005,2.817-1.792
				c1.557-1.637,2.441-3.799,2.475-6.058c-0.013-1.116-0.245-2.219-0.683-3.246C263.416,98.122,262.81,97.171,262.058,96.342z"/>
			<path fill="#0597f2" d="M296.191,96.342c-0.816-0.772-1.772-1.382-2.817-1.796c-2.079-0.85-4.408-0.85-6.487,0
				c-2.139,0.784-3.824,2.469-4.608,4.608c-0.437,1.027-0.667,2.13-0.679,3.246c0.032,2.259,0.916,4.423,2.475,6.059
				c0.83,0.752,1.781,1.357,2.813,1.791c2.067,0.911,4.421,0.911,6.487,0c1.044-0.414,1.999-1.022,2.817-1.792
				c1.557-1.637,2.441-3.799,2.475-6.058c-0.013-1.116-0.245-2.219-0.683-3.246C297.549,98.122,296.943,97.171,296.191,96.342z"/>
			<path fill="#0597f2" d="M53.675,407.125c1.636,1.558,3.8,2.441,6.059,2.475c1.115-0.014,2.216-0.246,3.242-0.683
				c1.033-0.434,1.986-1.04,2.817-1.791c0.752-0.831,1.358-1.783,1.792-2.817c0.437-1.026,0.669-2.127,0.683-3.242
				c-0.033-2.259-0.917-4.422-2.475-6.059c-0.83-0.754-1.783-1.362-2.817-1.796c-3.186-1.251-6.809-0.552-9.3,1.796
				c-1.559,1.635-2.443,3.799-2.475,6.059c0.012,1.115,0.243,2.216,0.679,3.242C52.313,405.343,52.92,406.295,53.675,407.125z"/>
			<path fill="#0597f2" d="M90.621,408.916c2.067,0.911,4.421,0.911,6.487,0c2.143-0.777,3.831-2.465,4.608-4.608c0.911-2.067,0.911-4.421,0-6.487
				c-0.78-2.141-2.467-3.828-4.608-4.608c-2.079-0.85-4.409-0.85-6.487,0c-2.139,0.784-3.824,2.469-4.608,4.608
				c-0.906,2.068-0.906,4.42,0,6.487C86.793,406.449,88.48,408.136,90.621,408.916z"/>
			<path fill="#0597f2" d="M121.941,407.125c3.365,3.3,8.752,3.3,12.117,0c0.752-0.831,1.358-1.783,1.792-2.817
				c0.478-1.012,0.713-2.123,0.683-3.242c0.02-3.467-2.059-6.601-5.261-7.931s-6.89-0.59-9.331,1.872
				c-0.754,0.828-1.362,1.78-1.796,2.813c-0.906,2.068-0.906,4.42,0,6.487C120.579,405.342,121.187,406.295,121.941,407.125z"/>
			<path fill="#0597f2" d="M387.242,393.213c-2.061-0.938-4.427-0.938-6.487,0c-1.033,0.434-1.984,1.041-2.813,1.796c-3.3,3.365-3.3,8.752,0,12.117
				c0.83,0.752,1.781,1.358,2.813,1.792c2.067,0.911,4.421,0.911,6.487,0c1.033-0.434,1.986-1.04,2.817-1.792
				c3.3-3.365,3.3-8.752,0-12.117C389.228,394.254,388.276,393.646,387.242,393.213z"/>
			<path fill="#0597f2" d="M416.425,392.704c-0.534,0.091-1.051,0.263-1.533,0.508c-0.546,0.187-1.064,0.447-1.542,0.771l-1.275,1.025
				c-1.574,1.625-2.461,3.796-2.475,6.059c0.014,1.115,0.246,2.216,0.683,3.242c0.413,1.044,1.021,2,1.792,2.817
				c2.886,2.912,7.432,3.371,10.842,1.095c3.41-2.277,4.729-6.65,3.147-10.433C424.481,394.004,420.44,391.873,416.425,392.704z"/>
			<path fill="#0597f2" d="M458.325,395.008c-2.734-2.765-6.987-3.342-10.359-1.407c-3.372,1.936-5.018,5.9-4.008,9.655
				c1.009,3.755,4.421,6.359,8.309,6.344c2.27,0.022,4.453-0.87,6.058-2.475s2.497-3.788,2.475-6.058
				c-0.013-1.116-0.245-2.219-0.683-3.246C459.705,396.777,459.097,395.823,458.325,395.008z"/>
			<path fill="#0597f2" d="M494.933,298.667h-68.267V281.6h17.067c9.421-0.011,17.056-7.646,17.067-17.067h42.667c4.713,0,8.533-3.82,8.533-8.533
				s-3.82-8.533-8.533-8.533H460.8c-0.011-9.421-7.646-17.056-17.067-17.067h-51.2c-9.422,0.009-17.057,7.645-17.067,17.067h-76.8
				c-0.009-9.422-7.645-17.057-17.067-17.067h-17.067v-17.067H307.2c4.713,0,8.533-3.821,8.533-8.533v-17.067
				c-0.015-14.132-11.468-25.585-25.6-25.6v-17.067H332.8c9.422-0.009,17.057-7.645,17.067-17.067V17.067
				C349.857,7.645,342.222,0.009,332.8,0H179.2c-9.422,0.009-17.057,7.645-17.067,17.067V128
				c0.009,9.422,7.645,17.057,17.067,17.067h42.667v17.067c-14.132,0.015-25.585,11.468-25.6,25.6V204.8
				c0,4.713,3.82,8.533,8.533,8.533h42.667V230.4H230.4c-9.422,0.009-17.057,7.645-17.067,17.067h-76.8
				c-0.009-9.422-7.645-17.057-17.067-17.067h-51.2c-9.422,0.009-17.057,7.645-17.067,17.067H8.533C3.82,247.467,0,251.287,0,256
				s3.82,8.533,8.533,8.533H51.2c0.009,9.422,7.645,17.057,17.067,17.067h17.067v17.067H17.067
				C7.645,298.676,0.009,306.312,0,315.733v110.933c0.009,9.422,7.645,17.057,17.067,17.067h42.667V460.8
				c-14.132,0.015-25.585,11.468-25.6,25.6v17.067c0,4.713,3.82,8.533,8.533,8.533h102.4c4.713,0,8.533-3.82,8.533-8.533V486.4
				c-0.015-14.132-11.468-25.585-25.6-25.6v-17.067h42.667c9.422-0.009,17.057-7.645,17.067-17.067V315.733
				c-0.009-9.422-7.645-17.057-17.067-17.067H102.4V281.6h17.067c9.422-0.009,17.057-7.645,17.067-17.067h76.8
				c0.009,9.422,7.645,17.057,17.067,17.067h51.2c9.422-0.009,17.057-7.645,17.067-17.067h76.8
				c0.009,9.422,7.645,17.057,17.067,17.067H409.6v17.067h-68.267c-9.422,0.009-17.057,7.645-17.067,17.067v110.933
				c0.009,9.422,7.645,17.057,17.067,17.067H384V460.8c-14.132,0.015-25.585,11.468-25.6,25.6v17.067
				c0,4.713,3.82,8.533,8.533,8.533h102.4c2.263,0.001,4.434-0.898,6.035-2.499c1.6-1.6,2.499-3.771,2.499-6.035V486.4
				c-0.015-14.132-11.468-25.585-25.6-25.6v-17.067h42.667c9.421-0.011,17.056-7.645,17.067-17.067V315.733
				C511.989,306.312,504.355,298.677,494.933,298.667z M136.533,486.4v8.533H51.2V486.4c0.006-4.71,3.823-8.527,8.533-8.533H128
				C132.71,477.873,136.527,481.69,136.533,486.4z M76.8,460.8v-17.067h34.133V460.8H76.8z M170.667,315.733l0.012,110.933H17.067
				V315.733H170.667z M68.267,264.533v-17.067h51.2l0.006,8.503L119.467,256l0.006,0.031l0.006,8.502H68.267z M179.2,128V17.067
				h153.6L332.813,128H179.2z M273.067,145.067v17.067h-34.133v-17.067H273.067z M213.333,196.267v-8.533
				c0.006-4.71,3.823-8.527,8.533-8.533h68.267c4.71,0.006,8.527,3.823,8.533,8.533v8.533H213.333z M230.4,264.533v-17.067h51.2
				l0.006,8.503L281.6,256l0.006,0.031l0.006,8.502H230.4z M392.533,264.533v-17.067h51.2l0.004,8.513L443.733,256l0.004,0.021
				l0.004,8.513H392.533z M460.8,486.4v8.533h-85.333V486.4c0.006-4.71,3.823-8.527,8.533-8.533h68.267
				C456.978,477.871,460.795,481.689,460.8,486.4z M401.067,460.8v-17.067H435.2V460.8H401.067z M341.333,426.667V315.733h153.6
				l0.009,110.933H341.333z"/>
		</g>
	</g>
</g>
<g>
</g>
<g>
</g>
<g>
</g>
<g>
</g>
<g>
</g>
<g>
</g>
<g>
</g>
<g>
</g>
<g>
</g>
<g>
</g>
<g>
</g>
<g>
</g>
<g>
</g>
<g>
</g>
<g>
</g>
</svg>
