<svg id="Capa_1" enable-background="new 0 0 512 512" height="512" viewBox="0 0 512 512" width="512" xmlns="http://www.w3.org/2000/svg"><g>
	<path fill="#0597f2" d="m97.765 237.758h-16.954c-4.145 0-7.508 3.368-7.5 7.514v.047.002 58.83c0 5.434 3.637 8.473 7.621 8.473 1 0 12.998-.055 17.46-.133 17.991-.314 31.048-16.001 31.048-37.299.001-22.391-12.729-37.434-31.675-37.434zm.366 59.734c-2.234.039-6.175.07-9.725.093-.063-18.768-.038-18.704-.081-44.827h9.441c12.295 0 16.675 11.588 16.675 22.433 0 10.958-5.044 22.104-16.31 22.301z"/>
	<path fill="#0597f2" d="m266.425 314.509c10.225 0 18.931-3.938 25.179-11.388 2.661-3.174 2.246-7.904-.928-10.566s-7.904-2.246-10.566.927c-3.354 3.999-7.957 6.026-13.685 6.026-12.873 0-23.345-10.472-23.345-23.344 0-12.873 10.472-23.345 23.345-23.345 4.68 0 9.191 1.377 13.048 3.982 3.433 2.319 8.095 1.416 10.413-2.017 2.318-3.432 1.416-8.094-2.017-10.413-6.346-4.287-13.761-6.553-21.444-6.553-21.144 0-38.345 17.201-38.345 38.345 0 21.145 17.201 38.346 38.345 38.346z"/>
	<path fill="#0597f2" d="m179.646 314.509c21.144 0 38.345-17.201 38.345-38.344 0-21.144-17.201-38.345-38.345-38.345s-38.345 17.201-38.345 38.345c.001 21.143 17.202 38.344 38.345 38.344zm0-61.689c12.873 0 23.345 10.472 23.345 23.345 0 12.872-10.472 23.344-23.345 23.344s-23.345-10.472-23.345-23.344c.001-12.873 10.473-23.345 23.345-23.345z"/>
	<path fill="#0597f2" d="m419.542 149.174h-230.603c-4.142 0-7.5 3.358-7.5 7.5s3.358 7.5 7.5 7.5h230.603c4.143 0 7.5-3.358 7.5-7.5s-3.357-7.5-7.5-7.5z"/>
	<path fill="#0597f2" d="m419.542 205.629h-59.384c-4.143 0-7.5 3.358-7.5 7.5s3.357 7.5 7.5 7.5h59.384c4.143 0 7.5-3.358 7.5-7.5s-3.357-7.5-7.5-7.5z"/>
	<path fill="#0597f2" d="m419.542 262.085h-59.384c-4.143 0-7.5 3.358-7.5 7.5s3.357 7.5 7.5 7.5h59.384c4.143 0 7.5-3.358 7.5-7.5s-3.357-7.5-7.5-7.5z"/>
	<path fill="#0597f2" d="m419.542 318.541h-59.384c-4.143 0-7.5 3.358-7.5 7.5s3.357 7.5 7.5 7.5h59.384c4.143 0 7.5-3.358 7.5-7.5s-3.357-7.5-7.5-7.5z"/>
	<path fill="#0597f2" d="m419.542 374.996h-230.603c-4.142 0-7.5 3.358-7.5 7.5s3.358 7.5 7.5 7.5h230.603c4.143 0 7.5-3.358 7.5-7.5s-3.357-7.5-7.5-7.5z"/>
	<path fill="#0597f2" d="m466.39 195.784c4.143 0 7.5-3.358 7.5-7.5v-87.087c0-1.896-.757-3.864-2.196-5.303l-93.697-93.697c-1.325-1.325-3.238-2.197-5.303-2.197h-227.68c-16.615 0-30.132 13.517-30.132 30.132v16.942h-16.941c-16.615 0-30.132 13.517-30.132 30.132v123.58h-8.619c-11.623 0-21.079 9.456-21.079 21.079v108.538c0 11.624 9.456 21.08 21.079 21.08h8.619v130.386c0 16.615 13.517 30.132 30.132 30.132h51.099c4.142 0 7.5-3.358 7.5-7.5s-3.358-7.5-7.5-7.5h-51.099c-8.344 0-15.132-6.788-15.132-15.132v-130.387h32.074v83.312c0 16.615 13.517 30.132 30.132 30.132h266.802v16.942c0 8.344-6.788 15.132-15.132 15.132h-212.646c-4.142 0-7.5 3.358-7.5 7.5s3.358 7.5 7.5 7.5h212.646c16.614 0 30.132-13.517 30.132-30.132v-16.942h16.941c16.615 0 30.132-13.517 30.132-30.132v-211.51c0-4.142-3.357-7.5-7.5-7.5s-7.5 3.358-7.5 7.5v211.51c0 8.344-6.788 15.132-15.132 15.132-10.617 0-283.692 0-298.744 0-8.344 0-15.132-6.788-15.132-15.132v-83.312h177.596c11.624 0 21.08-9.456 21.08-21.08v-108.535-.002c0-.001 0-.002 0-.003-.002-11.611-9.462-21.076-21.08-21.076-7.055 0-167.956 0-177.596 0 0-8.897 0-163.182 0-170.654 0-8.344 6.789-15.132 15.132-15.132h220.179v63.565c0 16.615 13.518 30.132 30.132 30.132h63.564v79.587c.001 4.142 3.358 7.5 7.501 7.5zm-158.912 20.002c3.31 0 6.08 2.7 6.08 6.08v108.537c0 3.352-2.728 6.08-6.08 6.08-10.63 0-237.658 0-248.289 0-3.352 0-6.079-2.728-6.079-6.08v-108.538c0-3.352 2.727-6.079 6.079-6.079zm-224.67-15v-123.58c0-8.344 6.788-15.132 15.132-15.132h16.941v138.712zm312.517-107.089c-8.344 0-15.132-6.788-15.132-15.132v-52.959c9.862 9.862 58.206 58.207 68.09 68.09h-52.958z"/></g>
</svg>